# xmcd
# 
# Track frame offsets:
#     150
#     23748
#     48257
#     79575
#     121229
#     149940
#     176790
#     203953
#     229032
#     264526
#     290917
#     322411
# 
# Disc length: 4639
# 
# Revision: 1
# Processed by: cddbd v1.5.2PL0 Copyright (c) Steve Scherf et al.
# Submitted via: fre:ac v1.1beta1pre5
# 
DISCID=bc121d0c
DTITLE=Stieg Larsson - The Girl Who Kicked The Hornet's Nest
DYEAR=2010
DGENRE=Audiobook
TTITLE0=Girl Who Kicked the Hornets Nest - CD 08 Track 01
TTITLE1=Girl Who Kicked the Hornets Nest - CD 08 Track 02
TTITLE2=Girl Who Kicked the Hornets Nest - CD 08 Track 03
TTITLE3=Girl Who Kicked the Hornets Nest - CD 08 Track 04
TTITLE4=Girl Who Kicked the Hornets Nest - CD 08 Track 05
TTITLE5=Girl Who Kicked the Hornets Nest - CD 08 Track 06
TTITLE6=Girl Who Kicked the Hornets Nest - CD 08 Track 07
TTITLE7=Girl Who Kicked the Hornets Nest - CD 08 Track 08
TTITLE8=Girl Who Kicked the Hornets Nest - CD 08 Track 09
TTITLE9=Girl Who Kicked the Hornets Nest - CD 08 Track 10
TTITLE10=Girl Who Kicked the Hornets Nest - CD 08 Track 11
TTITLE11=Girl Who Kicked the Hornets Nest - CD 08 Track 12
EXTD=YEAR: 2010
EXTT0=
EXTT1=
EXTT2=
EXTT3=
EXTT4=
EXTT5=
EXTT6=
EXTT7=
EXTT8=
EXTT9=
EXTT10=
EXTT11=
PLAYORDER=
